<svg id="visual" viewBox="0 0 900 600" width="900" height="600" xmlns="http://www.w3.org/2000/svg" xmlns:xlink="http://www.w3.org/1999/xlink" version="1.1"><rect x="0" y="0" width="900" height="600" fill="#001220"></rect><defs><linearGradient id="grad1_0" x1="33.3%" y1="100%" x2="100%" y2="0%"><stop offset="20%" stop-color="#fbae3c" stop-opacity="1"></stop><stop offset="80%" stop-color="#fbae3c" stop-opacity="1"></stop></linearGradient></defs><defs><linearGradient id="grad1_1" x1="33.3%" y1="100%" x2="100%" y2="0%"><stop offset="20%" stop-color="#fbae3c" stop-opacity="1"></stop><stop offset="80%" stop-color="#f48350" stop-opacity="1"></stop></linearGradient></defs><defs><linearGradient id="grad1_2" x1="33.3%" y1="100%" x2="100%" y2="0%"><stop offset="20%" stop-color="#d96162" stop-opacity="1"></stop><stop offset="80%" stop-color="#f48350" stop-opacity="1"></stop></linearGradient></defs><defs><linearGradient id="grad1_3" x1="33.3%" y1="100%" x2="100%" y2="0%"><stop offset="20%" stop-color="#d96162" stop-opacity="1"></stop><stop offset="80%" stop-color="#af4b6d" stop-opacity="1"></stop></linearGradient></defs><defs><linearGradient id="grad1_4" x1="33.3%" y1="100%" x2="100%" y2="0%"><stop offset="20%" stop-color="#7c3e6b" stop-opacity="1"></stop><stop offset="80%" stop-color="#af4b6d" stop-opacity="1"></stop></linearGradient></defs><defs><linearGradient id="grad1_5" x1="33.3%" y1="100%" x2="100%" y2="0%"><stop offset="20%" stop-color="#7c3e6b" stop-opacity="1"></stop><stop offset="80%" stop-color="#49335c" stop-opacity="1"></stop></linearGradient></defs><defs><linearGradient id="grad1_6" x1="33.3%" y1="100%" x2="100%" y2="0%"><stop offset="20%" stop-color="#1d2540" stop-opacity="1"></stop><stop offset="80%" stop-color="#49335c" stop-opacity="1"></stop></linearGradient></defs><defs><linearGradient id="grad1_7" x1="33.3%" y1="100%" x2="100%" y2="0%"><stop offset="20%" stop-color="#1d2540" stop-opacity="1"></stop><stop offset="80%" stop-color="#001220" stop-opacity="1"></stop></linearGradient></defs><defs><linearGradient id="grad2_0" x1="0%" y1="100%" x2="66.7%" y2="0%"><stop offset="20%" stop-color="#fbae3c" stop-opacity="1"></stop><stop offset="80%" stop-color="#fbae3c" stop-opacity="1"></stop></linearGradient></defs><defs><linearGradient id="grad2_1" x1="0%" y1="100%" x2="66.7%" y2="0%"><stop offset="20%" stop-color="#f48350" stop-opacity="1"></stop><stop offset="80%" stop-color="#fbae3c" stop-opacity="1"></stop></linearGradient></defs><defs><linearGradient id="grad2_2" x1="0%" y1="100%" x2="66.7%" y2="0%"><stop offset="20%" stop-color="#f48350" stop-opacity="1"></stop><stop offset="80%" stop-color="#d96162" stop-opacity="1"></stop></linearGradient></defs><defs><linearGradient id="grad2_3" x1="0%" y1="100%" x2="66.7%" y2="0%"><stop offset="20%" stop-color="#af4b6d" stop-opacity="1"></stop><stop offset="80%" stop-color="#d96162" stop-opacity="1"></stop></linearGradient></defs><defs><linearGradient id="grad2_4" x1="0%" y1="100%" x2="66.7%" y2="0%"><stop offset="20%" stop-color="#af4b6d" stop-opacity="1"></stop><stop offset="80%" stop-color="#7c3e6b" stop-opacity="1"></stop></linearGradient></defs><defs><linearGradient id="grad2_5" x1="0%" y1="100%" x2="66.7%" y2="0%"><stop offset="20%" stop-color="#49335c" stop-opacity="1"></stop><stop offset="80%" stop-color="#7c3e6b" stop-opacity="1"></stop></linearGradient></defs><defs><linearGradient id="grad2_6" x1="0%" y1="100%" x2="66.7%" y2="0%"><stop offset="20%" stop-color="#49335c" stop-opacity="1"></stop><stop offset="80%" stop-color="#1d2540" stop-opacity="1"></stop></linearGradient></defs><defs><linearGradient id="grad2_7" x1="0%" y1="100%" x2="66.7%" y2="0%"><stop offset="20%" stop-color="#001220" stop-opacity="1"></stop><stop offset="80%" stop-color="#1d2540" stop-opacity="1"></stop></linearGradient></defs><g transform="translate(900, 600)"><path d="M-459.7 0C-403.8 -35.8 -347.9 -71.5 -337.2 -139.7C-326.5 -207.9 -360.9 -308.5 -325.1 -325.1C-289.2 -341.7 -183 -274.3 -117.1 -282.7C-51.2 -291.1 -25.6 -375.4 0 -459.7L0 0Z" fill="#0c1c30"></path><path d="M-402.2 0C-353.3 -31.3 -304.4 -62.6 -295.1 -122.2C-285.7 -181.9 -315.8 -269.9 -284.4 -284.4C-253 -299 -160.1 -240 -102.5 -247.4C-44.8 -254.8 -22.4 -328.5 0 -402.2L0 0Z" fill="#312c4f"></path><path d="M-344.8 0C-302.9 -26.8 -261 -53.6 -252.9 -104.8C-244.9 -155.9 -270.7 -231.3 -243.8 -243.8C-216.9 -256.2 -137.2 -205.7 -87.8 -212C-38.4 -218.4 -19.2 -281.6 0 -344.8L0 0Z" fill="#623965"></path><path d="M-287.3 0C-252.4 -22.3 -217.5 -44.7 -210.8 -87.3C-204.1 -129.9 -225.6 -192.8 -203.2 -203.2C-180.7 -213.5 -114.4 -171.4 -73.2 -176.7C-32 -182 -16 -234.6 0 -287.3L0 0Z" fill="#96446e"></path><path d="M-229.9 0C-201.9 -17.9 -174 -35.8 -168.6 -69.8C-163.2 -103.9 -180.5 -154.2 -162.5 -162.5C-144.6 -170.8 -91.5 -137.1 -58.6 -141.4C-25.6 -145.6 -12.8 -187.7 0 -229.9L0 0Z" fill="#c55469"></path><path d="M-172.4 0C-151.4 -13.4 -130.5 -26.8 -126.5 -52.4C-122.4 -77.9 -135.4 -115.7 -121.9 -121.9C-108.4 -128.1 -68.6 -102.8 -43.9 -106C-19.2 -109.2 -9.6 -140.8 0 -172.4L0 0Z" fill="#e9705a"></path><path d="M-114.9 0C-101 -8.9 -87 -17.9 -84.3 -34.9C-81.6 -52 -90.2 -77.1 -81.3 -81.3C-72.3 -85.4 -45.7 -68.6 -29.3 -70.7C-12.8 -72.8 -6.4 -93.9 0 -114.9L0 0Z" fill="#fa9845"></path><path d="M-57.5 0C-50.5 -4.5 -43.5 -8.9 -42.2 -17.5C-40.8 -26 -45.1 -38.6 -40.6 -40.6C-36.1 -42.7 -22.9 -34.3 -14.6 -35.3C-6.4 -36.4 -3.2 -46.9 0 -57.5L0 0Z" fill="#fbae3c"></path></g><g transform="translate(0, 0)"><path d="M459.7 0C419.9 47.2 380 94.5 361.2 149.6C342.4 204.8 344.7 267.9 317.5 317.5C290.3 367.1 233.7 403.3 175.9 424.7C118.1 446.2 59.1 452.9 0 459.7L0 0Z" fill="#0c1c30"></path><path d="M402.2 0C367.4 41.3 332.5 82.7 316.1 130.9C299.6 179.2 301.6 234.4 277.8 277.8C254 321.2 204.5 352.8 153.9 371.6C103.3 390.4 51.7 396.3 0 402.2L0 0Z" fill="#312c4f"></path><path d="M344.8 0C314.9 35.4 285 70.9 270.9 112.2C256.8 153.6 258.5 200.9 238.1 238.1C217.7 275.3 175.3 302.4 131.9 318.5C88.6 334.6 44.3 339.7 0 344.8L0 0Z" fill="#623965"></path><path d="M287.3 0C262.4 29.5 237.5 59 225.8 93.5C214 128 215.4 167.4 198.4 198.4C181.4 229.4 146.1 252 110 265.4C73.8 278.9 36.9 283.1 0 287.3L0 0Z" fill="#96446e"></path><path d="M229.9 0C209.9 23.6 190 47.2 180.6 74.8C171.2 102.4 172.3 133.9 158.7 158.7C145.2 183.6 116.9 201.6 88 212.4C59.1 223.1 29.5 226.5 0 229.9L0 0Z" fill="#c55469"></path><path d="M172.4 0C157.5 17.7 142.5 35.4 135.5 56.1C128.4 76.8 129.2 100.5 119.1 119.1C108.9 137.7 87.7 151.2 66 159.3C44.3 167.3 22.1 169.9 0 172.4L0 0Z" fill="#e9705a"></path><path d="M114.9 0C105 11.8 95 23.6 90.3 37.4C85.6 51.2 86.2 67 79.4 79.4C72.6 91.8 58.4 100.8 44 106.2C29.5 111.5 14.8 113.2 0 114.9L0 0Z" fill="#fa9845"></path><path d="M57.5 0C52.5 5.9 47.5 11.8 45.2 18.7C42.8 25.6 43.1 33.5 39.7 39.7C36.3 45.9 29.2 50.4 22 53.1C14.8 55.8 7.4 56.6 0 57.5L0 0Z" fill="#fbae3c"></path></g></svg>