<svg id="visual" viewBox="0 0 900 600" width="900" height="600" xmlns="http://www.w3.org/2000/svg" xmlns:xlink="http://www.w3.org/1999/xlink" version="1.1"><rect width="900" height="600" fill="#001829"></rect><g><g transform="translate(624 543)"><path d="M0 -48.6L31.2 -37.2L47.8 -8.4L42.1 24.3L16.6 45.6L-16.6 45.6L-42.1 24.3L-47.8 -8.4L-31.2 -37.2Z" fill="none" stroke="#297EA6" stroke-width="2"></path></g><g transform="translate(711 3)"><path d="M0 -26L16.7 -19.9L25.6 -4.5L22.5 13L8.9 24.4L-8.9 24.4L-22.5 13L-25.6 -4.5L-16.7 -19.9Z" fill="none" stroke="#297EA6" stroke-width="2"></path></g><g transform="translate(41 219)"><path d="M0 -30L19.3 -23L29.5 -5.2L26 15L10.3 28.2L-10.3 28.2L-26 15L-29.5 -5.2L-19.3 -23Z" stroke="#297EA6" fill="none" stroke-width="2"></path></g><g transform="translate(755 299)"><path d="M0 -35L22.5 -26.8L34.5 -6.1L30.3 17.5L12 32.9L-12 32.9L-30.3 17.5L-34.5 -6.1L-22.5 -26.8Z" stroke="#297EA6" fill="none" stroke-width="2"></path></g><g transform="translate(803 159)"><path d="M0 -43L27.6 -32.9L42.3 -7.5L37.2 21.5L14.7 40.4L-14.7 40.4L-37.2 21.5L-42.3 -7.5L-27.6 -32.9Z" stroke="#297EA6" fill="none" stroke-width="2"></path></g><g transform="translate(81 566)"><path d="M0 -47L30.2 -36L46.3 -8.2L40.7 23.5L16.1 44.2L-16.1 44.2L-40.7 23.5L-46.3 -8.2L-30.2 -36Z" stroke="#297EA6" fill="none" stroke-width="2"></path></g><g transform="translate(398 379)"><path d="M0 -33L21.2 -25.3L32.5 -5.7L28.6 16.5L11.3 31L-11.3 31L-28.6 16.5L-32.5 -5.7L-21.2 -25.3Z" stroke="#297EA6" fill="none" stroke-width="2"></path></g><g transform="translate(180 577)"><path d="M0 -12L7.7 -9.2L11.8 -2.1L10.4 6L4.1 11.3L-4.1 11.3L-10.4 6L-11.8 -2.1L-7.7 -9.2Z" stroke="#297EA6" fill="none" stroke-width="2"></path></g><g transform="translate(352 40)"><path d="M0 -32L20.6 -24.5L31.5 -5.6L27.7 16L10.9 30.1L-10.9 30.1L-27.7 16L-31.5 -5.6L-20.6 -24.5Z" stroke="#297EA6" fill="none" stroke-width="2"></path></g><g transform="translate(269 529)"><path d="M0 -44L28.3 -33.7L43.3 -7.6L38.1 22L15 41.3L-15 41.3L-38.1 22L-43.3 -7.6L-28.3 -33.7Z" stroke="#297EA6" fill="none" stroke-width="2"></path></g><g transform="translate(43 447)"><path d="M0 -15L9.6 -11.5L14.8 -2.6L13 7.5L5.1 14.1L-5.1 14.1L-13 7.5L-14.8 -2.6L-9.6 -11.5Z" stroke="#297EA6" fill="none" stroke-width="2"></path></g><g transform="translate(558 127)"><path d="M0 -44L28.3 -33.7L43.3 -7.6L38.1 22L15 41.3L-15 41.3L-38.1 22L-43.3 -7.6L-28.3 -33.7Z" stroke="#297EA6" fill="none" stroke-width="2"></path></g><g transform="translate(850 438)"><path d="M0 -20L12.9 -15.3L19.7 -3.5L17.3 10L6.8 18.8L-6.8 18.8L-17.3 10L-19.7 -3.5L-12.9 -15.3Z" stroke="#297EA6" fill="none" stroke-width="2"></path></g><g transform="translate(191 425)"><path d="M0 -15L9.6 -11.5L14.8 -2.6L13 7.5L5.1 14.1L-5.1 14.1L-13 7.5L-14.8 -2.6L-9.6 -11.5Z" stroke="#297EA6" fill="none" stroke-width="2"></path></g><g transform="translate(326 224)"><path d="M0 -28L18 -21.4L27.6 -4.9L24.2 14L9.6 26.3L-9.6 26.3L-24.2 14L-27.6 -4.9L-18 -21.4Z" stroke="#297EA6" fill="none" stroke-width="2"></path></g><g transform="translate(591 227)"><path d="M0 -28L18 -21.4L27.6 -4.9L24.2 14L9.6 26.3L-9.6 26.3L-24.2 14L-27.6 -4.9L-18 -21.4Z" stroke="#297EA6" fill="none" stroke-width="2"></path></g><g transform="translate(497 390)"><path d="M0 -40L25.7 -30.6L39.4 -6.9L34.6 20L13.7 37.6L-13.7 37.6L-34.6 20L-39.4 -6.9L-25.7 -30.6Z" stroke="#297EA6" fill="none" stroke-width="2"></path></g><g transform="translate(635 384)"><path d="M0 -6L3.9 -4.6L5.9 -1L5.2 3L2.1 5.6L-2.1 5.6L-5.2 3L-5.9 -1L-3.9 -4.6Z" stroke="#297EA6" fill="none" stroke-width="2"></path></g><g transform="translate(247 339)"><path d="M0 -32L20.6 -24.5L31.5 -5.6L27.7 16L10.9 30.1L-10.9 30.1L-27.7 16L-31.5 -5.6L-20.6 -24.5Z" stroke="#297EA6" fill="none" stroke-width="2"></path></g><g transform="translate(465 191)"><path d="M0 -44L28.3 -33.7L43.3 -7.6L38.1 22L15 41.3L-15 41.3L-38.1 22L-43.3 -7.6L-28.3 -33.7Z" stroke="#297EA6" fill="none" stroke-width="2"></path></g><g transform="translate(97 21)"><path d="M0 -15L9.6 -11.5L14.8 -2.6L13 7.5L5.1 14.1L-5.1 14.1L-13 7.5L-14.8 -2.6L-9.6 -11.5Z" stroke="#297EA6" fill="none" stroke-width="2"></path></g><g transform="translate(806 586)"><path d="M0 -13L8.4 -10L12.8 -2.3L11.3 6.5L4.4 12.2L-4.4 12.2L-11.3 6.5L-12.8 -2.3L-8.4 -10Z" stroke="#297EA6" fill="none" stroke-width="2"></path></g><g transform="translate(429 596)"><path d="M0 -30L19.3 -23L29.5 -5.2L26 15L10.3 28.2L-10.3 28.2L-26 15L-29.5 -5.2L-19.3 -23Z" stroke="#297EA6" fill="none" stroke-width="2"></path></g><g transform="translate(720 513)"><path d="M0 -8L5.1 -6.1L7.9 -1.4L6.9 4L2.7 7.5L-2.7 7.5L-6.9 4L-7.9 -1.4L-5.1 -6.1Z" stroke="#297EA6" fill="none" stroke-width="2"></path></g><g transform="translate(224 24)"><path d="M0 -31L19.9 -23.7L30.5 -5.4L26.8 15.5L10.6 29.1L-10.6 29.1L-26.8 15.5L-30.5 -5.4L-19.9 -23.7Z" stroke="#297EA6" fill="none" stroke-width="2"></path></g><g transform="translate(149 211)"><path d="M0 -13L8.4 -10L12.8 -2.3L11.3 6.5L4.4 12.2L-4.4 12.2L-11.3 6.5L-12.8 -2.3L-8.4 -10Z" stroke="#297EA6" fill="none" stroke-width="2"></path></g><g transform="translate(867 28)"><path d="M0 -12L7.7 -9.2L11.8 -2.1L10.4 6L4.1 11.3L-4.1 11.3L-10.4 6L-11.8 -2.1L-7.7 -9.2Z" stroke="#297EA6" fill="none" stroke-width="2"></path></g><g transform="translate(14 88)"><path d="M0 -39L25.1 -29.9L38.4 -6.8L33.8 19.5L13.3 36.6L-13.3 36.6L-33.8 19.5L-38.4 -6.8L-25.1 -29.9Z" stroke="#297EA6" fill="none" stroke-width="2"></path></g><g transform="translate(486 51)"><path d="M0 -28L18 -21.4L27.6 -4.9L24.2 14L9.6 26.3L-9.6 26.3L-24.2 14L-27.6 -4.9L-18 -21.4Z" stroke="#297EA6" fill="none" stroke-width="2"></path></g><g transform="translate(68 337)"><path d="M0 -42L27 -32.2L41.4 -7.3L36.4 21L14.4 39.5L-14.4 39.5L-36.4 21L-41.4 -7.3L-27 -32.2Z" stroke="#297EA6" fill="none" stroke-width="2"></path></g><g transform="translate(454 292)"><path d="M0 -10L6.4 -7.7L9.8 -1.7L8.7 5L3.4 9.4L-3.4 9.4L-8.7 5L-9.8 -1.7L-6.4 -7.7Z" stroke="#297EA6" fill="none" stroke-width="2"></path></g><g transform="translate(870 313)"><path d="M0 -17L10.9 -13L16.7 -3L14.7 8.5L5.8 16L-5.8 16L-14.7 8.5L-16.7 -3L-10.9 -13Z" stroke="#297EA6" fill="none" stroke-width="2"></path></g><g transform="translate(706 146)"><path d="M0 -6L3.9 -4.6L5.9 -1L5.2 3L2.1 5.6L-2.1 5.6L-5.2 3L-5.9 -1L-3.9 -4.6Z" stroke="#297EA6" fill="none" stroke-width="2"></path></g><g transform="translate(248 135)"><path d="M0 -17L10.9 -13L16.7 -3L14.7 8.5L5.8 16L-5.8 16L-14.7 8.5L-16.7 -3L-10.9 -13Z" stroke="#297EA6" fill="none" stroke-width="2"></path></g><g transform="translate(897 185)"><path d="M0 -20L12.9 -15.3L19.7 -3.5L17.3 10L6.8 18.8L-6.8 18.8L-17.3 10L-19.7 -3.5L-12.9 -15.3Z" stroke="#297EA6" fill="none" stroke-width="2"></path></g><g transform="translate(510 508)"><path d="M0 -27L17.4 -20.7L26.6 -4.7L23.4 13.5L9.2 25.4L-9.2 25.4L-23.4 13.5L-26.6 -4.7L-17.4 -20.7Z" stroke="#297EA6" fill="none" stroke-width="2"></path></g><g transform="translate(591 18)"><path d="M0 -23L14.8 -17.6L22.7 -4L19.9 11.5L7.9 21.6L-7.9 21.6L-19.9 11.5L-22.7 -4L-14.8 -17.6Z" stroke="#297EA6" fill="none" stroke-width="2"></path></g><g transform="translate(404 480)"><path d="M0 -41L26.4 -31.4L40.4 -7.1L35.5 20.5L14 38.5L-14 38.5L-35.5 20.5L-40.4 -7.1L-26.4 -31.4Z" stroke="#297EA6" fill="none" stroke-width="2"></path></g><g transform="translate(305 429)"><path d="M0 -11L7.1 -8.4L10.8 -1.9L9.5 5.5L3.8 10.3L-3.8 10.3L-9.5 5.5L-10.8 -1.9L-7.1 -8.4Z" stroke="#297EA6" fill="none" stroke-width="2"></path></g><g transform="translate(895 538)"><path d="M0 -36L23.1 -27.6L35.5 -6.3L31.2 18L12.3 33.8L-12.3 33.8L-31.2 18L-35.5 -6.3L-23.1 -27.6Z" stroke="#297EA6" fill="none" stroke-width="2"></path></g><g transform="translate(733 410)"><path d="M0 -47L30.2 -36L46.3 -8.2L40.7 23.5L16.1 44.2L-16.1 44.2L-40.7 23.5L-46.3 -8.2L-30.2 -36Z" stroke="#297EA6" fill="none" stroke-width="2"></path></g><g transform="translate(148 112)"><path d="M0 -24L15.4 -18.4L23.6 -4.2L20.8 12L8.2 22.6L-8.2 22.6L-20.8 12L-23.6 -4.2L-15.4 -18.4Z" stroke="#297EA6" fill="none" stroke-width="2"></path></g></g></svg>