<svg width="814" height="659" viewBox="0 0 814 659" fill="none" xmlns="http://www.w3.org/2000/svg">
<g opacity="0.7">
<path opacity="0.11" d="M201.358 507.73C201.902 507.377 202.057 506.649 201.704 506.105C201.35 505.56 200.623 505.406 200.078 505.759C199.534 506.112 199.379 506.84 199.732 507.384C200.086 507.928 200.813 508.083 201.358 507.73Z" fill="white"/>
<path d="M208.073 511.072C208.481 510.807 208.597 510.261 208.332 509.853C208.067 509.445 207.522 509.329 207.114 509.594C206.705 509.859 206.589 510.404 206.854 510.812C207.119 511.22 207.665 511.337 208.073 511.072Z" fill="white"/>
<path d="M217.62 490.178C218.028 489.913 218.144 489.368 217.879 488.96C217.614 488.551 217.069 488.435 216.66 488.7C216.252 488.965 216.136 489.511 216.401 489.919C216.666 490.327 217.211 490.443 217.62 490.178Z" fill="white"/>
<path d="M175.104 516.365C175.513 516.1 175.629 515.554 175.364 515.146C175.099 514.738 174.553 514.622 174.145 514.887C173.737 515.151 173.621 515.697 173.886 516.105C174.151 516.513 174.696 516.63 175.104 516.365Z" fill="white"/>
<path opacity="0.11" d="M158.39 544.014C158.934 543.661 159.089 542.933 158.736 542.389C158.382 541.845 157.655 541.69 157.11 542.043C156.566 542.396 156.411 543.124 156.764 543.668C157.118 544.213 157.845 544.367 158.39 544.014Z" fill="white"/>
<path d="M141.999 539.249C142.271 539.073 142.349 538.709 142.172 538.437C141.996 538.165 141.632 538.088 141.36 538.264C141.088 538.441 141.011 538.804 141.187 539.076C141.364 539.348 141.727 539.426 141.999 539.249Z" fill="white"/>
<path d="M212.342 527.903C212.614 527.726 212.692 527.363 212.515 527.091C212.339 526.819 211.975 526.741 211.703 526.918C211.431 527.094 211.354 527.458 211.531 527.73C211.707 528.002 212.07 528.079 212.342 527.903Z" fill="white"/>
<path d="M319.742 458.21C320.014 458.034 320.091 457.67 319.914 457.398C319.738 457.126 319.374 457.049 319.103 457.225C318.831 457.402 318.753 457.765 318.93 458.037C319.106 458.309 319.47 458.387 319.742 458.21Z" fill="white"/>
<path d="M356.171 396.76C356.443 396.584 356.52 396.22 356.343 395.948C356.167 395.676 355.803 395.599 355.531 395.775C355.26 395.952 355.182 396.315 355.359 396.587C355.535 396.859 355.899 396.936 356.171 396.76Z" fill="white"/>
<path d="M398.725 420.253C398.997 420.077 399.075 419.713 398.898 419.441C398.722 419.169 398.358 419.092 398.086 419.268C397.814 419.445 397.737 419.808 397.914 420.08C398.09 420.352 398.454 420.43 398.725 420.253Z" fill="white"/>
<path d="M40.3036 622.046C40.5756 621.87 40.653 621.506 40.4765 621.234C40.3 620.962 39.9365 620.885 39.6645 621.061C39.3926 621.238 39.3152 621.601 39.4917 621.873C39.6682 622.145 40.0317 622.223 40.3036 622.046Z" fill="white"/>
<path opacity="0.11" d="M15.6554 600.238C15.9274 600.061 16.0047 599.697 15.8283 599.426C15.6518 599.154 15.2883 599.076 15.0163 599.253C14.7444 599.429 14.667 599.793 14.8435 600.065C15.0199 600.337 15.3835 600.414 15.6554 600.238Z" fill="white"/>
<path opacity="0.11" d="M1.82751 625.315C2.09946 625.138 2.17686 624.775 2.00038 624.503C1.8239 624.231 1.46039 624.153 1.18844 624.33C0.9165 624.506 0.839098 624.87 1.01558 625.142C1.19206 625.414 1.55557 625.491 1.82751 625.315Z" fill="white"/>
<path opacity="0.11" d="M37.2646 644.324C37.5365 644.148 37.6139 643.784 37.4374 643.512C37.2609 643.241 36.8974 643.163 36.6255 643.34C36.3535 643.516 36.2761 643.88 36.4526 644.152C36.6291 644.424 36.9926 644.501 37.2646 644.324Z" fill="white"/>
<path opacity="0.11" d="M141.717 548.531C141.989 548.355 142.067 547.991 141.89 547.719C141.714 547.448 141.35 547.37 141.078 547.547C140.806 547.723 140.729 548.087 140.905 548.359C141.082 548.631 141.445 548.708 141.717 548.531Z" fill="white"/>
<path opacity="0.11" d="M222.875 546.277C223.147 546.1 223.224 545.737 223.047 545.465C222.871 545.193 222.508 545.115 222.236 545.292C221.964 545.468 221.886 545.832 222.063 546.104C222.239 546.376 222.603 546.453 222.875 546.277Z" fill="white"/>
<path opacity="0.11" d="M314.257 479.969C314.528 479.792 314.606 479.429 314.429 479.157C314.253 478.885 313.889 478.808 313.617 478.984C313.345 479.161 313.268 479.524 313.445 479.796C313.621 480.068 313.985 480.145 314.257 479.969Z" fill="white"/>
<path opacity="0.3" d="M54.9755 595.023C55.2474 594.846 55.3248 594.483 55.1484 594.211C54.9719 593.939 54.6083 593.861 54.3364 594.038C54.0644 594.214 53.9871 594.578 54.1636 594.85C54.34 595.122 54.7036 595.199 54.9755 595.023Z" fill="white"/>
<path d="M151.015 494.891C151.287 494.714 151.364 494.351 151.187 494.079C151.011 493.807 150.647 493.73 150.375 493.906C150.104 494.083 150.026 494.446 150.203 494.718C150.379 494.99 150.743 495.067 151.015 494.891Z" fill="white"/>
<path d="M226.242 444.674C226.514 444.498 226.591 444.134 226.414 443.862C226.238 443.59 225.874 443.513 225.602 443.689C225.331 443.866 225.253 444.229 225.43 444.501C225.606 444.773 225.97 444.851 226.242 444.674Z" fill="white"/>
<path d="M146.929 561.953C147.201 561.777 147.278 561.413 147.101 561.141C146.925 560.869 146.561 560.792 146.29 560.969C146.018 561.145 145.94 561.509 146.117 561.78C146.293 562.052 146.657 562.13 146.929 561.953Z" fill="white"/>
<path opacity="0.3" d="M112.444 584.333C112.716 584.157 112.794 583.793 112.617 583.521C112.441 583.249 112.077 583.172 111.805 583.348C111.533 583.525 111.456 583.888 111.633 584.16C111.809 584.432 112.173 584.51 112.444 584.333Z" fill="white"/>
<path opacity="0.11" d="M52.2336 580.002C52.5055 579.826 52.5829 579.462 52.4064 579.19C52.2299 578.918 51.8664 578.841 51.5944 579.017C51.3225 579.194 51.2451 579.557 51.4216 579.829C51.5981 580.101 51.9616 580.179 52.2336 580.002Z" fill="white"/>
<path opacity="0.3" d="M167.561 500.959C167.833 500.783 167.911 500.419 167.734 500.147C167.558 499.875 167.194 499.798 166.922 499.974C166.65 500.151 166.573 500.514 166.749 500.786C166.926 501.058 167.289 501.136 167.561 500.959Z" fill="white"/>
<path opacity="0.3" d="M161.381 565.878C161.653 565.702 161.731 565.338 161.554 565.066C161.378 564.794 161.014 564.717 160.742 564.893C160.47 565.07 160.393 565.433 160.57 565.705C160.746 565.977 161.11 566.055 161.381 565.878Z" fill="white"/>
<path opacity="0.3" d="M104.967 609.487C105.239 609.311 105.317 608.947 105.14 608.676C104.964 608.404 104.6 608.326 104.328 608.503C104.056 608.679 103.979 609.043 104.155 609.315C104.332 609.587 104.695 609.664 104.967 609.487Z" fill="white"/>
<path opacity="0.3" d="M69.2646 585.754C69.5365 585.578 69.6139 585.214 69.4374 584.942C69.2609 584.67 68.8974 584.593 68.6255 584.769C68.3535 584.946 68.2761 585.309 68.4526 585.581C68.6291 585.853 68.9926 585.931 69.2646 585.754Z" fill="white"/>
<path opacity="0.3" d="M374.717 385.426C374.989 385.25 375.067 384.886 374.89 384.614C374.714 384.342 374.35 384.265 374.078 384.441C373.806 384.618 373.729 384.981 373.905 385.253C374.082 385.525 374.446 385.602 374.717 385.426Z" fill="white"/>
<path opacity="0.11" d="M282.296 416.697C282.567 416.521 282.645 416.157 282.468 415.886C282.292 415.614 281.928 415.536 281.656 415.713C281.385 415.889 281.307 416.253 281.484 416.525C281.66 416.797 282.024 416.874 282.296 416.697Z" fill="white"/>
<path opacity="0.11" d="M375.163 415.239C375.435 415.062 375.513 414.698 375.336 414.427C375.16 414.155 374.796 414.077 374.524 414.254C374.252 414.43 374.175 414.794 374.352 415.066C374.528 415.338 374.892 415.415 375.163 415.239Z" fill="white"/>
<path opacity="0.3" d="M253.405 500.557C253.949 500.204 254.104 499.476 253.751 498.932C253.397 498.388 252.67 498.233 252.125 498.586C251.581 498.939 251.426 499.667 251.779 500.211C252.133 500.756 252.86 500.911 253.405 500.557Z" fill="white"/>
<path opacity="0.11" d="M272.882 466.917C273.426 466.563 273.581 465.836 273.228 465.291C272.874 464.747 272.147 464.592 271.602 464.945C271.058 465.299 270.903 466.026 271.256 466.571C271.61 467.115 272.337 467.27 272.882 466.917Z" fill="white"/>
<path d="M261.447 449.833C261.856 449.569 261.972 449.023 261.707 448.615C261.442 448.207 260.896 448.091 260.488 448.355C260.08 448.62 259.964 449.166 260.229 449.574C260.494 449.982 261.039 450.098 261.447 449.833Z" fill="white"/>
<path d="M261.027 523.619C261.435 523.354 261.551 522.808 261.286 522.4C261.021 521.992 260.476 521.876 260.067 522.141C259.659 522.405 259.543 522.951 259.808 523.359C260.073 523.767 260.618 523.883 261.027 523.619Z" fill="white"/>
<path d="M430.972 427.332C431.38 427.068 431.496 426.522 431.231 426.114C430.966 425.706 430.421 425.59 430.012 425.854C429.604 426.119 429.488 426.665 429.753 427.073C430.018 427.481 430.564 427.597 430.972 427.332Z" fill="white"/>
<path d="M105.816 626.44C106.224 626.175 106.34 625.629 106.075 625.221C105.81 624.813 105.265 624.697 104.856 624.962C104.448 625.227 104.332 625.772 104.597 626.18C104.862 626.589 105.407 626.705 105.816 626.44Z" fill="white"/>
<path d="M32.9475 657.627C33.3556 657.362 33.4718 656.817 33.2069 656.409C32.942 656.001 32.3964 655.884 31.9883 656.149C31.5801 656.414 31.464 656.96 31.7289 657.368C31.9937 657.776 32.5393 657.892 32.9475 657.627Z" fill="white"/>
<path d="M11.7837 643.358C12.1918 643.093 12.308 642.547 12.0431 642.139C11.7782 641.731 11.2326 641.615 10.8245 641.88C10.4163 642.145 10.3002 642.69 10.5651 643.098C10.8299 643.507 11.3755 643.623 11.7837 643.358Z" fill="white"/>
<path d="M244.197 475.032C244.606 474.767 244.722 474.221 244.457 473.813C244.192 473.405 243.646 473.289 243.238 473.554C242.83 473.818 242.714 474.364 242.979 474.772C243.244 475.18 243.789 475.297 244.197 475.032Z" fill="white"/>
<path d="M182.135 567.113C182.544 566.848 182.66 566.302 182.395 565.894C182.13 565.486 181.584 565.37 181.176 565.635C180.768 565.9 180.652 566.445 180.917 566.853C181.182 567.261 181.727 567.378 182.135 567.113Z" fill="white"/>
<path d="M320.027 507.734C320.435 507.469 320.551 506.923 320.286 506.515C320.021 506.107 319.476 505.991 319.067 506.256C318.659 506.521 318.543 507.066 318.808 507.474C319.073 507.883 319.618 507.999 320.027 507.734Z" fill="white"/>
<path d="M428.831 389.515C429.239 389.25 429.355 388.705 429.09 388.296C428.825 387.888 428.28 387.772 427.871 388.037C427.463 388.302 427.347 388.847 427.612 389.256C427.877 389.664 428.422 389.78 428.831 389.515Z" fill="white"/>
<path d="M423.072 354.747C423.481 354.483 423.597 353.937 423.332 353.529C423.067 353.121 422.521 353.005 422.113 353.269C421.705 353.534 421.589 354.08 421.854 354.488C422.119 354.896 422.664 355.012 423.072 354.747Z" fill="white"/>
<path opacity="0.3" d="M302.413 423.951C302.957 423.598 303.112 422.87 302.759 422.325C302.405 421.781 301.678 421.626 301.133 421.979C300.589 422.333 300.434 423.06 300.787 423.605C301.141 424.149 301.868 424.304 302.413 423.951Z" fill="white"/>
<path d="M279.71 388.975C280.254 388.622 280.409 387.894 280.055 387.35C279.702 386.806 278.975 386.651 278.43 387.004C277.886 387.357 277.731 388.085 278.084 388.629C278.437 389.174 279.165 389.328 279.71 388.975Z" fill="white"/>
<path d="M334.816 418.325C335.224 418.06 335.34 417.514 335.075 417.106C334.81 416.698 334.265 416.582 333.856 416.847C333.448 417.111 333.332 417.657 333.597 418.065C333.862 418.473 334.408 418.59 334.816 418.325Z" fill="white"/>
<path opacity="0.3" d="M346.241 383.606C346.785 383.253 346.94 382.525 346.587 381.981C346.233 381.436 345.506 381.281 344.961 381.635C344.417 381.988 344.262 382.716 344.615 383.26C344.968 383.804 345.696 383.959 346.241 383.606Z" fill="white"/>
<path opacity="0.3" d="M417.71 386.933C418.254 386.58 418.409 385.852 418.055 385.308C417.702 384.764 416.975 384.609 416.43 384.962C415.886 385.315 415.731 386.043 416.084 386.587C416.437 387.132 417.165 387.286 417.71 386.933Z" fill="white"/>
<path opacity="0.3" d="M360.71 425.322C361.254 424.969 361.409 424.241 361.056 423.697C360.702 423.152 359.975 422.997 359.43 423.351C358.886 423.704 358.731 424.432 359.084 424.976C359.437 425.52 360.165 425.675 360.71 425.322Z" fill="white"/>
<path opacity="0.3" d="M83.3736 617.201C83.9179 616.847 84.0728 616.12 83.7196 615.575C83.3663 615.031 82.6386 614.876 82.0943 615.229C81.5499 615.583 81.395 616.31 81.7483 616.855C82.1015 617.399 82.8292 617.554 83.3736 617.201Z" fill="white"/>
<path opacity="0.3" d="M25.8816 616.003C26.426 615.65 26.5809 614.923 26.2276 614.378C25.8743 613.834 25.1467 613.679 24.6023 614.032C24.058 614.385 23.9031 615.113 24.2563 615.658C24.6096 616.202 25.3373 616.357 25.8816 616.003Z" fill="white"/>
<path opacity="0.11" d="M387.921 385.262C388.465 384.909 388.62 384.181 388.267 383.637C387.913 383.093 387.186 382.938 386.641 383.291C386.097 383.644 385.942 384.372 386.295 384.916C386.649 385.461 387.376 385.616 387.921 385.262Z" fill="white"/>
<path opacity="0.3" d="M85.4595 553.539C86.0039 553.185 86.1588 552.458 85.8055 551.913C85.4522 551.369 84.7246 551.214 84.1802 551.567C83.6359 551.921 83.481 552.648 83.8342 553.193C84.1875 553.737 84.9152 553.892 85.4595 553.539Z" fill="white"/>
<path opacity="0.11" d="M65.7647 552.317C66.3091 551.964 66.4639 551.236 66.1107 550.692C65.7574 550.147 65.0298 549.992 64.4854 550.346C63.941 550.699 63.7861 551.427 64.1394 551.971C64.4927 552.515 65.2203 552.67 65.7647 552.317Z" fill="white"/>
<path opacity="0.3" d="M82.2876 586.402C82.832 586.049 82.9869 585.321 82.6336 584.777C82.2804 584.232 81.5527 584.077 81.0083 584.431C80.464 584.784 80.3091 585.512 80.6623 586.056C81.0156 586.6 81.7433 586.755 82.2876 586.402Z" fill="white"/>
<path d="M112.753 565.93C113.161 565.665 113.277 565.12 113.012 564.711C112.747 564.303 112.202 564.187 111.793 564.452C111.385 564.717 111.269 565.262 111.534 565.671C111.799 566.079 112.345 566.195 112.753 565.93Z" fill="white"/>
<path opacity="0.11" d="M274.093 246.732C274.637 246.379 274.792 245.651 274.439 245.107C274.085 244.562 273.358 244.407 272.813 244.761C272.269 245.114 272.114 245.842 272.467 246.386C272.821 246.93 273.548 247.085 274.093 246.732Z" fill="white"/>
<path d="M280.808 250.075C281.216 249.81 281.332 249.264 281.067 248.856C280.802 248.448 280.257 248.332 279.848 248.597C279.44 248.861 279.324 249.407 279.589 249.815C279.854 250.223 280.399 250.34 280.808 250.075Z" fill="white"/>
<path d="M290.354 229.18C290.763 228.915 290.879 228.37 290.614 227.961C290.349 227.553 289.803 227.437 289.395 227.702C288.987 227.967 288.871 228.513 289.136 228.921C289.401 229.329 289.946 229.445 290.354 229.18Z" fill="white"/>
<path d="M247.839 255.368C248.247 255.103 248.363 254.557 248.098 254.149C247.833 253.741 247.288 253.625 246.879 253.89C246.471 254.154 246.355 254.7 246.62 255.108C246.885 255.516 247.43 255.632 247.839 255.368Z" fill="white"/>
<path opacity="0.11" d="M231.124 283.016C231.668 282.663 231.823 281.935 231.47 281.391C231.116 280.847 230.389 280.692 229.844 281.045C229.3 281.398 229.145 282.126 229.498 282.67C229.852 283.215 230.579 283.369 231.124 283.016Z" fill="white"/>
<path d="M214.734 278.252C215.005 278.076 215.083 277.712 214.906 277.44C214.73 277.168 214.366 277.091 214.094 277.267C213.823 277.444 213.745 277.807 213.922 278.079C214.098 278.351 214.462 278.429 214.734 278.252Z" fill="white"/>
<path d="M285.078 266.905C285.349 266.729 285.427 266.365 285.25 266.094C285.074 265.822 284.71 265.744 284.438 265.921C284.167 266.097 284.089 266.461 284.266 266.733C284.442 267.005 284.806 267.082 285.078 266.905Z" fill="white"/>
<path d="M392.475 197.213C392.747 197.037 392.825 196.673 392.648 196.401C392.472 196.129 392.108 196.052 391.836 196.228C391.564 196.405 391.487 196.768 391.664 197.04C391.84 197.312 392.204 197.39 392.475 197.213Z" fill="white"/>
<path d="M428.905 135.763C429.177 135.586 429.255 135.223 429.078 134.951C428.902 134.679 428.538 134.602 428.266 134.778C427.994 134.955 427.917 135.318 428.093 135.59C428.27 135.862 428.633 135.939 428.905 135.763Z" fill="white"/>
<path d="M471.46 159.258C471.732 159.082 471.809 158.718 471.632 158.446C471.456 158.174 471.092 158.097 470.821 158.273C470.549 158.45 470.471 158.813 470.648 159.085C470.824 159.357 471.188 159.435 471.46 159.258Z" fill="white"/>
<path d="M113.038 361.048C113.31 360.872 113.388 360.508 113.211 360.236C113.035 359.964 112.671 359.887 112.399 360.063C112.127 360.24 112.05 360.603 112.227 360.875C112.403 361.147 112.767 361.225 113.038 361.048Z" fill="white"/>
<path opacity="0.11" d="M88.3895 339.24C88.6615 339.064 88.7389 338.7 88.5624 338.428C88.3859 338.157 88.0224 338.079 87.7505 338.256C87.4785 338.432 87.4011 338.796 87.5776 339.068C87.7541 339.34 88.1176 339.417 88.3895 339.24Z" fill="white"/>
<path opacity="0.11" d="M74.5614 364.317C74.8334 364.14 74.9108 363.777 74.7343 363.505C74.5578 363.233 74.1943 363.155 73.9223 363.332C73.6504 363.508 73.573 363.872 73.7495 364.144C73.926 364.416 74.2895 364.493 74.5614 364.317Z" fill="white"/>
<path opacity="0.11" d="M110 383.326C110.272 383.15 110.349 382.786 110.173 382.514C109.996 382.242 109.633 382.165 109.361 382.342C109.089 382.518 109.011 382.882 109.188 383.154C109.364 383.425 109.728 383.503 110 383.326Z" fill="white"/>
<path opacity="0.11" d="M214.453 287.533C214.724 287.357 214.802 286.993 214.625 286.721C214.449 286.45 214.085 286.372 213.813 286.549C213.541 286.725 213.464 287.089 213.641 287.361C213.817 287.632 214.181 287.71 214.453 287.533Z" fill="white"/>
<path opacity="0.11" d="M295.609 285.279C295.88 285.103 295.958 284.739 295.781 284.468C295.605 284.196 295.241 284.118 294.969 284.295C294.698 284.471 294.62 284.835 294.797 285.107C294.973 285.379 295.337 285.456 295.609 285.279Z" fill="white"/>
<path opacity="0.11" d="M386.992 218.971C387.264 218.794 387.341 218.431 387.164 218.159C386.988 217.887 386.624 217.81 386.353 217.986C386.081 218.163 386.003 218.526 386.18 218.798C386.356 219.07 386.72 219.147 386.992 218.971Z" fill="white"/>
<path opacity="0.3" d="M127.71 334.026C127.982 333.849 128.059 333.486 127.882 333.214C127.706 332.942 127.342 332.864 127.071 333.041C126.799 333.217 126.721 333.581 126.898 333.853C127.074 334.125 127.438 334.202 127.71 334.026Z" fill="white"/>
<path d="M223.75 233.893C224.022 233.716 224.099 233.353 223.923 233.081C223.746 232.809 223.383 232.732 223.111 232.908C222.839 233.084 222.761 233.448 222.938 233.72C223.114 233.992 223.478 234.069 223.75 233.893Z" fill="white"/>
<path d="M298.975 183.676C299.247 183.5 299.325 183.136 299.148 182.864C298.972 182.592 298.608 182.515 298.336 182.691C298.064 182.868 297.987 183.231 298.164 183.503C298.34 183.775 298.704 183.852 298.975 183.676Z" fill="white"/>
<path d="M219.663 300.956C219.935 300.78 220.013 300.416 219.836 300.144C219.66 299.872 219.296 299.795 219.024 299.971C218.752 300.148 218.675 300.511 218.852 300.783C219.028 301.055 219.392 301.133 219.663 300.956Z" fill="white"/>
<path opacity="0.3" d="M185.179 323.335C185.451 323.159 185.528 322.795 185.351 322.523C185.175 322.251 184.811 322.174 184.54 322.35C184.268 322.527 184.19 322.89 184.367 323.162C184.543 323.434 184.907 323.512 185.179 323.335Z" fill="white"/>
<path opacity="0.11" d="M124.967 319.005C125.239 318.829 125.317 318.465 125.14 318.193C124.964 317.921 124.6 317.844 124.328 318.02C124.056 318.197 123.979 318.56 124.155 318.832C124.332 319.104 124.695 319.182 124.967 319.005Z" fill="white"/>
<path opacity="0.3" d="M240.296 239.961C240.568 239.785 240.645 239.421 240.468 239.149C240.292 238.877 239.928 238.8 239.656 238.976C239.385 239.153 239.307 239.516 239.484 239.788C239.66 240.06 240.024 240.138 240.296 239.961Z" fill="white"/>
<path opacity="0.3" d="M234.117 304.88C234.389 304.704 234.466 304.34 234.289 304.068C234.113 303.796 233.749 303.719 233.478 303.895C233.206 304.072 233.128 304.435 233.305 304.707C233.481 304.979 233.845 305.057 234.117 304.88Z" fill="white"/>
<path opacity="0.3" d="M177.703 348.49C177.974 348.314 178.052 347.95 177.875 347.678C177.699 347.407 177.335 347.329 177.063 347.506C176.791 347.682 176.714 348.046 176.891 348.318C177.067 348.59 177.431 348.667 177.703 348.49Z" fill="white"/>
<path opacity="0.3" d="M142 324.756C142.272 324.58 142.349 324.216 142.173 323.944C141.996 323.672 141.633 323.595 141.361 323.771C141.089 323.948 141.011 324.311 141.188 324.583C141.364 324.855 141.728 324.933 142 324.756Z" fill="white"/>
<path opacity="0.3" d="M447.453 124.428C447.724 124.251 447.802 123.888 447.625 123.616C447.449 123.344 447.085 123.267 446.813 123.443C446.542 123.62 446.464 123.983 446.641 124.255C446.817 124.527 447.181 124.604 447.453 124.428Z" fill="white"/>
<path opacity="0.11" d="M355.03 155.7C355.302 155.524 355.38 155.16 355.203 154.888C355.027 154.617 354.663 154.539 354.391 154.716C354.119 154.892 354.042 155.256 354.218 155.528C354.395 155.799 354.758 155.877 355.03 155.7Z" fill="white"/>
<path opacity="0.11" d="M447.898 154.241C448.17 154.065 448.247 153.701 448.07 153.429C447.894 153.158 447.53 153.08 447.259 153.257C446.987 153.433 446.909 153.797 447.086 154.069C447.262 154.341 447.626 154.418 447.898 154.241Z" fill="white"/>
<path opacity="0.3" d="M326.14 239.56C326.684 239.207 326.839 238.479 326.486 237.935C326.132 237.391 325.405 237.236 324.86 237.589C324.316 237.942 324.161 238.67 324.514 239.214C324.868 239.759 325.595 239.913 326.14 239.56Z" fill="white"/>
<path opacity="0.11" d="M345.616 205.919C346.16 205.565 346.315 204.838 345.962 204.293C345.608 203.749 344.881 203.594 344.336 203.947C343.792 204.301 343.637 205.028 343.99 205.573C344.343 206.117 345.071 206.272 345.616 205.919Z" fill="white"/>
<path d="M334.183 188.835C334.591 188.57 334.707 188.025 334.442 187.617C334.177 187.209 333.632 187.092 333.223 187.357C332.815 187.622 332.699 188.168 332.964 188.576C333.229 188.984 333.774 189.1 334.183 188.835Z" fill="white"/>
<path d="M333.76 262.621C334.169 262.356 334.285 261.81 334.02 261.402C333.755 260.994 333.209 260.878 332.801 261.142C332.393 261.407 332.277 261.953 332.542 262.361C332.807 262.769 333.352 262.885 333.76 262.621Z" fill="white"/>
<path d="M503.706 166.334C504.114 166.069 504.23 165.524 503.965 165.116C503.7 164.708 503.155 164.591 502.746 164.856C502.338 165.121 502.222 165.667 502.487 166.075C502.752 166.483 503.297 166.599 503.706 166.334Z" fill="white"/>
<path d="M178.55 365.442C178.958 365.177 179.074 364.631 178.809 364.223C178.544 363.815 177.998 363.699 177.59 363.964C177.182 364.229 177.066 364.774 177.331 365.182C177.596 365.591 178.141 365.707 178.55 365.442Z" fill="white"/>
<path d="M105.683 396.629C106.091 396.364 106.207 395.819 105.942 395.411C105.677 395.003 105.132 394.886 104.723 395.151C104.315 395.416 104.199 395.962 104.464 396.37C104.729 396.778 105.274 396.894 105.683 396.629Z" fill="white"/>
<path d="M84.5185 382.36C84.9267 382.095 85.0428 381.549 84.778 381.141C84.5131 380.733 83.9675 380.617 83.5593 380.882C83.1512 381.147 83.035 381.692 83.2999 382.1C83.5648 382.509 84.1104 382.625 84.5185 382.36Z" fill="white"/>
<path d="M316.933 214.035C317.341 213.77 317.457 213.224 317.192 212.816C316.927 212.408 316.382 212.292 315.973 212.557C315.565 212.821 315.449 213.367 315.714 213.775C315.979 214.183 316.524 214.299 316.933 214.035Z" fill="white"/>
<path d="M254.87 306.115C255.278 305.85 255.394 305.304 255.129 304.896C254.864 304.488 254.319 304.372 253.91 304.637C253.502 304.901 253.386 305.447 253.651 305.855C253.916 306.263 254.461 306.38 254.87 306.115Z" fill="white"/>
<path d="M392.76 246.736C393.169 246.471 393.285 245.925 393.02 245.517C392.755 245.109 392.209 244.993 391.801 245.258C391.393 245.523 391.277 246.068 391.542 246.476C391.807 246.884 392.352 247.001 392.76 246.736Z" fill="white"/>
<path d="M501.566 128.517C501.974 128.252 502.09 127.707 501.825 127.298C501.56 126.89 501.015 126.774 500.606 127.039C500.198 127.304 500.082 127.849 500.347 128.258C500.612 128.666 501.157 128.782 501.566 128.517Z" fill="white"/>
<path d="M495.808 93.7504C496.216 93.4855 496.332 92.9399 496.067 92.5318C495.802 92.1237 495.257 92.0075 494.848 92.2724C494.44 92.5372 494.324 93.0828 494.589 93.491C494.854 93.8991 495.399 94.0153 495.808 93.7504Z" fill="white"/>
<path opacity="0.3" d="M375.146 162.953C375.691 162.599 375.846 161.872 375.493 161.327C375.139 160.783 374.412 160.628 373.867 160.981C373.323 161.335 373.168 162.062 373.521 162.607C373.874 163.151 374.602 163.306 375.146 162.953Z" fill="white"/>
<path d="M352.444 127.977C352.988 127.624 353.143 126.896 352.79 126.352C352.436 125.808 351.709 125.653 351.164 126.006C350.62 126.359 350.465 127.087 350.818 127.631C351.172 128.176 351.899 128.33 352.444 127.977Z" fill="white"/>
<path d="M407.55 157.327C407.958 157.062 408.074 156.516 407.809 156.108C407.544 155.7 406.998 155.584 406.59 155.849C406.182 156.113 406.066 156.659 406.331 157.067C406.596 157.475 407.141 157.591 407.55 157.327Z" fill="white"/>
<path opacity="0.3" d="M418.976 122.608C419.52 122.255 419.675 121.527 419.322 120.983C418.968 120.438 418.241 120.283 417.696 120.637C417.152 120.99 416.997 121.718 417.35 122.262C417.704 122.806 418.431 122.961 418.976 122.608Z" fill="white"/>
<path opacity="0.3" d="M490.444 125.935C490.988 125.582 491.143 124.854 490.79 124.31C490.436 123.766 489.709 123.611 489.164 123.964C488.62 124.317 488.465 125.045 488.818 125.589C489.172 126.134 489.899 126.288 490.444 125.935Z" fill="white"/>
<path opacity="0.3" d="M433.444 164.324C433.988 163.971 434.143 163.243 433.79 162.699C433.436 162.154 432.709 161.999 432.164 162.353C431.62 162.706 431.465 163.433 431.818 163.978C432.172 164.522 432.899 164.677 433.444 164.324Z" fill="white"/>
<path opacity="0.3" d="M156.108 356.204C156.652 355.85 156.807 355.123 156.454 354.578C156.1 354.034 155.373 353.879 154.828 354.232C154.284 354.586 154.129 355.313 154.482 355.858C154.836 356.402 155.563 356.557 156.108 356.204Z" fill="white"/>
<path opacity="0.3" d="M98.6155 355.006C99.1599 354.653 99.3148 353.926 98.9615 353.381C98.6082 352.837 97.8806 352.682 97.3362 353.035C96.7919 353.388 96.637 354.116 96.9902 354.66C97.3435 355.205 98.0712 355.36 98.6155 355.006Z" fill="white"/>
<path opacity="0.11" d="M460.655 124.264C461.199 123.911 461.354 123.183 461.001 122.639C460.647 122.095 459.92 121.94 459.375 122.293C458.831 122.646 458.676 123.374 459.029 123.918C459.383 124.463 460.11 124.618 460.655 124.264Z" fill="white"/>
<path opacity="0.3" d="M158.194 292.542C158.738 292.188 158.893 291.461 158.54 290.916C158.186 290.372 157.459 290.217 156.914 290.57C156.37 290.924 156.215 291.651 156.568 292.196C156.922 292.74 157.649 292.895 158.194 292.542Z" fill="white"/>
<path opacity="0.11" d="M138.499 291.319C139.043 290.966 139.198 290.238 138.845 289.694C138.491 289.149 137.764 288.994 137.219 289.348C136.675 289.701 136.52 290.429 136.873 290.973C137.227 291.517 137.954 291.672 138.499 291.319Z" fill="white"/>
<path opacity="0.3" d="M155.022 325.405C155.566 325.052 155.721 324.324 155.368 323.78C155.014 323.235 154.287 323.08 153.742 323.434C153.198 323.787 153.043 324.515 153.396 325.059C153.75 325.603 154.477 325.758 155.022 325.405Z" fill="white"/>
<path d="M185.488 304.932C185.896 304.667 186.012 304.122 185.747 303.713C185.482 303.305 184.936 303.189 184.528 303.454C184.12 303.719 184.004 304.264 184.269 304.673C184.534 305.081 185.079 305.197 185.488 304.932Z" fill="white"/>
<path opacity="0.11" d="M583.226 155.813C583.77 155.46 583.925 154.732 583.572 154.188C583.218 153.643 582.491 153.489 581.946 153.842C581.402 154.195 581.247 154.923 581.6 155.467C581.954 156.011 582.681 156.166 583.226 155.813Z" fill="white"/>
<path d="M589.941 159.155C590.349 158.89 590.465 158.344 590.2 157.936C589.935 157.528 589.39 157.412 588.981 157.677C588.573 157.942 588.457 158.487 588.722 158.895C588.987 159.303 589.532 159.42 589.941 159.155Z" fill="white"/>
<path d="M599.488 138.261C599.896 137.996 600.012 137.451 599.747 137.043C599.482 136.634 598.937 136.518 598.528 136.783C598.12 137.048 598.004 137.594 598.269 138.002C598.534 138.41 599.079 138.526 599.488 138.261Z" fill="white"/>
<path d="M556.972 164.448C557.38 164.183 557.496 163.637 557.231 163.229C556.966 162.821 556.421 162.705 556.012 162.97C555.604 163.235 555.488 163.78 555.753 164.188C556.018 164.596 556.563 164.713 556.972 164.448Z" fill="white"/>
<path opacity="0.11" d="M540.257 192.096C540.801 191.743 540.956 191.015 540.603 190.471C540.249 189.927 539.522 189.772 538.977 190.125C538.433 190.478 538.278 191.206 538.631 191.75C538.985 192.295 539.712 192.45 540.257 192.096Z" fill="white"/>
<path d="M523.867 187.332C524.139 187.156 524.216 186.792 524.039 186.52C523.863 186.248 523.499 186.171 523.227 186.347C522.956 186.524 522.878 186.887 523.055 187.159C523.231 187.431 523.595 187.509 523.867 187.332Z" fill="white"/>
<path d="M594.21 175.986C594.481 175.809 594.559 175.446 594.382 175.174C594.206 174.902 593.842 174.824 593.57 175.001C593.298 175.177 593.221 175.541 593.398 175.813C593.574 176.085 593.938 176.162 594.21 175.986Z" fill="white"/>
<path d="M701.609 106.293C701.88 106.117 701.958 105.753 701.781 105.481C701.605 105.209 701.241 105.132 700.969 105.308C700.697 105.485 700.62 105.848 700.797 106.12C700.973 106.392 701.337 106.47 701.609 106.293Z" fill="white"/>
<path d="M738.038 44.843C738.31 44.6665 738.388 44.303 738.211 44.031C738.035 43.7591 737.671 43.6817 737.399 43.8582C737.127 44.0347 737.05 44.3982 737.227 44.6701C737.403 44.9421 737.767 45.0195 738.038 44.843Z" fill="white"/>
<path d="M780.593 68.3361C780.865 68.1596 780.942 67.7961 780.765 67.5242C780.589 67.2522 780.225 67.1748 779.953 67.3513C779.682 67.5278 779.604 67.8914 779.781 68.1633C779.957 68.4352 780.321 68.5126 780.593 68.3361Z" fill="white"/>
<path d="M422.171 270.129C422.443 269.953 422.52 269.589 422.343 269.317C422.167 269.045 421.803 268.968 421.531 269.144C421.26 269.321 421.182 269.684 421.359 269.956C421.535 270.228 421.899 270.306 422.171 270.129Z" fill="white"/>
<path opacity="0.11" d="M397.523 248.321C397.795 248.145 397.872 247.781 397.695 247.51C397.519 247.238 397.155 247.16 396.884 247.337C396.612 247.513 396.534 247.877 396.711 248.149C396.887 248.421 397.251 248.498 397.523 248.321Z" fill="white"/>
<path opacity="0.11" d="M383.694 273.398C383.966 273.221 384.044 272.858 383.867 272.586C383.691 272.314 383.327 272.236 383.055 272.413C382.783 272.589 382.706 272.953 382.883 273.225C383.059 273.497 383.423 273.574 383.694 273.398Z" fill="white"/>
<path opacity="0.11" d="M419.132 292.407C419.403 292.231 419.481 291.867 419.304 291.596C419.128 291.324 418.764 291.246 418.492 291.423C418.22 291.599 418.143 291.963 418.32 292.235C418.496 292.507 418.86 292.584 419.132 292.407Z" fill="white"/>
<path opacity="0.11" d="M523.585 196.613C523.857 196.437 523.934 196.073 523.757 195.802C523.581 195.53 523.218 195.452 522.946 195.629C522.674 195.805 522.596 196.169 522.773 196.441C522.949 196.713 523.313 196.79 523.585 196.613Z" fill="white"/>
<path opacity="0.11" d="M604.734 194.36C605.005 194.183 605.083 193.82 604.906 193.548C604.73 193.276 604.366 193.198 604.094 193.375C603.822 193.551 603.745 193.915 603.922 194.187C604.098 194.459 604.462 194.536 604.734 194.36Z" fill="white"/>
<path opacity="0.11" d="M696.125 128.052C696.396 127.875 696.474 127.512 696.297 127.24C696.121 126.968 695.757 126.891 695.485 127.067C695.213 127.244 695.136 127.607 695.313 127.879C695.489 128.151 695.853 128.228 696.125 128.052Z" fill="white"/>
<path opacity="0.3" d="M436.842 243.106C437.114 242.929 437.192 242.566 437.015 242.294C436.839 242.022 436.475 241.944 436.203 242.121C435.931 242.297 435.854 242.661 436.03 242.933C436.207 243.205 436.57 243.282 436.842 243.106Z" fill="white"/>
<path d="M532.882 142.974C533.153 142.797 533.231 142.434 533.054 142.162C532.878 141.89 532.514 141.813 532.242 141.989C531.97 142.166 531.893 142.529 532.07 142.801C532.246 143.073 532.61 143.15 532.882 142.974Z" fill="white"/>
<path d="M608.109 92.7571C608.38 92.5806 608.458 92.2171 608.281 91.9451C608.105 91.6732 607.741 91.5958 607.469 91.7723C607.197 91.9487 607.12 92.3123 607.297 92.5842C607.473 92.8561 607.837 92.9336 608.109 92.7571Z" fill="white"/>
<path d="M528.796 210.037C529.068 209.861 529.145 209.497 528.968 209.225C528.792 208.953 528.428 208.876 528.156 209.053C527.885 209.229 527.807 209.593 527.984 209.864C528.16 210.136 528.524 210.214 528.796 210.037Z" fill="white"/>
<path opacity="0.3" d="M494.311 232.416C494.583 232.24 494.661 231.876 494.484 231.604C494.308 231.332 493.944 231.255 493.672 231.431C493.4 231.608 493.323 231.971 493.499 232.243C493.676 232.515 494.039 232.593 494.311 232.416Z" fill="white"/>
<path opacity="0.11" d="M434.1 228.085C434.372 227.909 434.45 227.545 434.273 227.273C434.097 227.001 433.733 226.924 433.461 227.1C433.189 227.277 433.112 227.64 433.289 227.912C433.465 228.184 433.829 228.262 434.1 228.085Z" fill="white"/>
<path opacity="0.3" d="M549.428 149.042C549.7 148.866 549.778 148.502 549.601 148.23C549.425 147.958 549.061 147.881 548.789 148.057C548.517 148.234 548.44 148.597 548.616 148.869C548.793 149.141 549.156 149.219 549.428 149.042Z" fill="white"/>
<path opacity="0.3" d="M543.25 213.961C543.522 213.785 543.599 213.421 543.423 213.149C543.246 212.877 542.882 212.8 542.611 212.976C542.339 213.153 542.261 213.516 542.438 213.788C542.614 214.06 542.978 214.138 543.25 213.961Z" fill="white"/>
<path opacity="0.3" d="M486.834 257.571C487.106 257.394 487.184 257.031 487.007 256.759C486.831 256.487 486.467 256.409 486.195 256.586C485.923 256.762 485.846 257.126 486.022 257.398C486.199 257.67 486.562 257.747 486.834 257.571Z" fill="white"/>
<path opacity="0.3" d="M451.132 233.837C451.403 233.661 451.481 233.297 451.304 233.025C451.128 232.753 450.764 232.676 450.492 232.852C450.22 233.029 450.143 233.392 450.32 233.664C450.496 233.936 450.86 234.014 451.132 233.837Z" fill="white"/>
<path opacity="0.3" d="M756.585 33.509C756.857 33.3325 756.934 32.969 756.757 32.697C756.581 32.4251 756.218 32.3477 755.946 32.5242C755.674 32.7007 755.596 33.0642 755.773 33.3361C755.949 33.6081 756.313 33.6855 756.585 33.509Z" fill="white"/>
<path opacity="0.11" d="M664.163 64.7805C664.435 64.604 664.513 64.2405 664.336 63.9685C664.16 63.6966 663.796 63.6192 663.524 63.7957C663.252 63.9722 663.175 64.3357 663.352 64.6076C663.528 64.8796 663.892 64.957 664.163 64.7805Z" fill="white"/>
<path opacity="0.11" d="M757.031 63.3215C757.302 63.145 757.38 62.7815 757.203 62.5096C757.027 62.2376 756.663 62.1602 756.391 62.3367C756.119 62.5132 756.042 62.8767 756.219 63.1487C756.395 63.4206 756.759 63.498 757.031 63.3215Z" fill="white"/>
<path opacity="0.3" d="M635.272 148.64C635.816 148.287 635.971 147.559 635.618 147.015C635.264 146.471 634.537 146.316 633.992 146.669C633.448 147.022 633.293 147.75 633.646 148.294C634 148.839 634.727 148.993 635.272 148.64Z" fill="white"/>
<path opacity="0.11" d="M654.749 115C655.293 114.646 655.448 113.919 655.095 113.374C654.741 112.83 654.014 112.675 653.469 113.028C652.925 113.382 652.77 114.109 653.123 114.654C653.477 115.198 654.204 115.353 654.749 115Z" fill="white"/>
<path d="M643.316 97.9164C643.724 97.6516 643.84 97.106 643.575 96.6978C643.31 96.2897 642.765 96.1735 642.356 96.4384C641.948 96.7033 641.832 97.2488 642.097 97.657C642.362 98.0651 642.907 98.1813 643.316 97.9164Z" fill="white"/>
<path d="M642.894 171.702C643.302 171.437 643.418 170.891 643.153 170.483C642.888 170.075 642.342 169.959 641.934 170.224C641.526 170.488 641.41 171.034 641.675 171.442C641.94 171.85 642.485 171.966 642.894 171.702Z" fill="white"/>
<path d="M812.839 75.4154C813.247 75.1506 813.363 74.605 813.098 74.1968C812.833 73.7887 812.288 73.6725 811.879 73.9374C811.471 74.2023 811.355 74.7479 811.62 75.156C811.885 75.5642 812.43 75.6803 812.839 75.4154Z" fill="white"/>
<path d="M487.683 274.523C488.091 274.258 488.207 273.712 487.942 273.304C487.677 272.896 487.132 272.78 486.723 273.045C486.315 273.31 486.199 273.855 486.464 274.263C486.729 274.672 487.274 274.788 487.683 274.523Z" fill="white"/>
<path d="M414.816 305.71C415.224 305.445 415.34 304.9 415.075 304.492C414.81 304.084 414.265 303.967 413.856 304.232C413.448 304.497 413.332 305.043 413.597 305.451C413.862 305.859 414.407 305.975 414.816 305.71Z" fill="white"/>
<path d="M393.652 291.441C394.06 291.176 394.176 290.63 393.911 290.222C393.646 289.814 393.101 289.698 392.692 289.963C392.284 290.228 392.168 290.773 392.433 291.181C392.698 291.59 393.243 291.706 393.652 291.441Z" fill="white"/>
<path d="M626.066 123.115C626.474 122.85 626.59 122.304 626.325 121.896C626.06 121.488 625.515 121.372 625.106 121.637C624.698 121.901 624.582 122.447 624.847 122.855C625.112 123.263 625.657 123.38 626.066 123.115Z" fill="white"/>
<path d="M564.003 215.196C564.411 214.931 564.527 214.385 564.262 213.977C563.997 213.569 563.452 213.453 563.043 213.718C562.635 213.983 562.519 214.528 562.784 214.936C563.049 215.344 563.594 215.461 564.003 215.196Z" fill="white"/>
<path d="M701.894 155.817C702.302 155.552 702.418 155.006 702.153 154.598C701.888 154.19 701.343 154.074 700.934 154.339C700.526 154.604 700.41 155.149 700.675 155.557C700.94 155.966 701.485 156.082 701.894 155.817Z" fill="white"/>
<path d="M810.698 37.5981C811.106 37.3332 811.222 36.7876 810.957 36.3795C810.693 35.9713 810.147 35.8552 809.739 36.12C809.331 36.3849 809.215 36.9305 809.479 37.3386C809.744 37.7468 810.29 37.8629 810.698 37.5981Z" fill="white"/>
<path d="M804.941 2.83049C805.349 2.56561 805.465 2.02003 805.2 1.61188C804.935 1.20373 804.39 1.08757 803.981 1.35245C803.573 1.61732 803.457 2.1629 803.722 2.57105C803.987 2.9792 804.532 3.09536 804.941 2.83049Z" fill="white"/>
<path opacity="0.3" d="M684.272 72.0338C684.816 71.6805 684.971 70.9528 684.618 70.4085C684.264 69.8641 683.537 69.7092 682.992 70.0625C682.448 70.4157 682.293 71.1434 682.646 71.6878C683 72.2321 683.727 72.387 684.272 72.0338Z" fill="white"/>
<path d="M661.577 37.0582C662.121 36.7049 662.276 35.9773 661.923 35.4329C661.569 34.8886 660.842 34.7337 660.297 35.0869C659.753 35.4402 659.598 36.1678 659.951 36.7122C660.305 37.2566 661.032 37.4115 661.577 37.0582Z" fill="white"/>
<path d="M716.683 66.4076C717.091 66.1428 717.207 65.5972 716.942 65.189C716.677 64.7809 716.132 64.6647 715.723 64.9296C715.315 65.1945 715.199 65.74 715.464 66.1482C715.729 66.5563 716.274 66.6725 716.683 66.4076Z" fill="white"/>
<path opacity="0.3" d="M728.108 31.6891C728.652 31.3358 728.807 30.6081 728.454 30.0638C728.1 29.5194 727.373 29.3645 726.828 29.7178C726.284 30.0711 726.129 30.7987 726.482 31.3431C726.836 31.8874 727.563 32.0423 728.108 31.6891Z" fill="white"/>
<path opacity="0.3" d="M799.577 35.0162C800.122 34.6629 800.276 33.9353 799.923 33.3909C799.57 32.8466 798.842 32.6917 798.298 33.0449C797.754 33.3982 797.599 34.1259 797.952 34.6702C798.305 35.2146 799.033 35.3695 799.577 35.0162Z" fill="white"/>
<path opacity="0.3" d="M742.577 73.4049C743.121 73.0516 743.276 72.324 742.923 71.7796C742.569 71.2353 741.842 71.0803 741.297 71.4336C740.753 71.7869 740.598 72.5145 740.951 73.0589C741.305 73.6032 742.032 73.7581 742.577 73.4049Z" fill="white"/>
<path opacity="0.3" d="M465.241 265.285C465.785 264.931 465.94 264.204 465.587 263.659C465.233 263.115 464.506 262.96 463.961 263.313C463.417 263.667 463.262 264.394 463.615 264.939C463.969 265.483 464.696 265.638 465.241 265.285Z" fill="white"/>
<path opacity="0.3" d="M407.749 264.087C408.293 263.734 408.448 263.007 408.095 262.462C407.741 261.918 407.014 261.763 406.469 262.116C405.925 262.469 405.77 263.197 406.123 263.741C406.477 264.286 407.204 264.441 407.749 264.087Z" fill="white"/>
<path opacity="0.11" d="M769.788 33.3453C770.332 32.9921 770.487 32.2644 770.134 31.72C769.78 31.1757 769.053 31.0208 768.508 31.374C767.964 31.7273 767.809 32.455 768.162 32.9993C768.516 33.5437 769.243 33.6986 769.788 33.3453Z" fill="white"/>
<path opacity="0.3" d="M467.327 201.622C467.871 201.268 468.026 200.541 467.673 199.996C467.319 199.452 466.592 199.297 466.047 199.65C465.503 200.004 465.348 200.731 465.701 201.276C466.055 201.82 466.782 201.975 467.327 201.622Z" fill="white"/>
<path opacity="0.11" d="M447.632 200.4C448.176 200.047 448.331 199.319 447.978 198.775C447.624 198.23 446.897 198.075 446.352 198.429C445.808 198.782 445.653 199.51 446.006 200.054C446.36 200.598 447.087 200.753 447.632 200.4Z" fill="white"/>
<path opacity="0.3" d="M464.155 234.485C464.699 234.132 464.854 233.404 464.501 232.86C464.147 232.315 463.42 232.16 462.875 232.514C462.331 232.867 462.176 233.595 462.529 234.139C462.883 234.683 463.61 234.838 464.155 234.485Z" fill="white"/>
<path d="M494.62 214.013C495.028 213.748 495.144 213.203 494.879 212.794C494.614 212.386 494.069 212.27 493.66 212.535C493.252 212.8 493.136 213.346 493.401 213.754C493.666 214.162 494.211 214.278 494.62 214.013Z" fill="white"/>
</g>
</svg>
